<svg xmlns="http://www.w3.org/2000/svg" viewBox="0 0 1100 350" width="1100" height="350"
     font-family="Helvetica, Arial, 'Malgun Gothic', sans-serif" font-size="15">
  <title>그림 27 ACM 추적 송신시 좌표계 운용</title>
  <defs>
    <marker id="arr_B_p34_F1" viewBox="0 0 10 10" refX="9" refY="5" markerWidth="7" markerHeight="7" orient="auto">
      <path d="M0,0 L10,5 L0,10 z" fill="#000"/>
    </marker>
    <marker id="arrs_B_p34_F1" viewBox="0 0 10 10" refX="9" refY="5" markerWidth="6" markerHeight="6" orient="auto">
      <path d="M0,0 L10,5 L0,10 z" fill="#000"/>
    </marker>
  </defs>

  <rect width="1100" height="350" fill="#ffffff"/>

  <!-- ================= 항공기 실루엣 (Body / Antenna / Antenna) ================= -->
  <!-- Body 좌표계 기체 -->
  <g transform="translate(471.5,220) scale(1.17)" fill="#d6d6d6" stroke="#000" stroke-width="1.1" stroke-linejoin="round">
    <path d="M2,55 L20,49 L45,40 L70,29 L88,20 L97,13 L99,19 L90,27 L68,37 L42,47 L18,55 L4,59 Z"/>
    <path d="M76,26 L82,3 L92,2 L94,15 Z"/>
    <path d="M58,34 L44,45 L28,56 L24,60 L36,57 L52,48 L66,40 Z"/>
    <path d="M84,22 L74,31 L64,38 L78,32 L92,23 Z"/>
    <path d="M60,32 L64,20 L74,14 L70,25 Z"/>
  </g>
  <!-- Antenna(Pa) 좌표계 기체 -->
  <g transform="translate(720,234) scale(1.03)" fill="#d6d6d6" stroke="#000" stroke-width="1.2" stroke-linejoin="round">
    <path d="M2,55 L20,49 L45,40 L70,29 L88,20 L97,13 L99,19 L90,27 L68,37 L42,47 L18,55 L4,59 Z"/>
    <path d="M76,26 L82,3 L92,2 L94,15 Z"/>
    <path d="M58,34 L44,45 L28,56 L24,60 L36,57 L52,48 L66,40 Z"/>
    <path d="M84,22 L74,31 L64,38 L78,32 L92,23 Z"/>
    <path d="M60,32 L64,20 L74,14 L70,25 Z"/>
  </g>
  <!-- Antenna(θx,θy) 좌표계 기체 -->
  <g transform="translate(957,237) scale(1.04)" fill="#d6d6d6" stroke="#000" stroke-width="1.2" stroke-linejoin="round">
    <path d="M2,55 L20,49 L45,40 L70,29 L88,20 L97,13 L99,19 L90,27 L68,37 L42,47 L18,55 L4,59 Z"/>
    <path d="M76,26 L82,3 L92,2 L94,15 Z"/>
    <path d="M58,34 L44,45 L28,56 L24,60 L36,57 L52,48 L66,40 Z"/>
    <path d="M84,22 L74,31 L64,38 L78,32 L92,23 Z"/>
    <path d="M60,32 L64,20 L74,14 L70,25 Z"/>
  </g>

  <!-- ================= 블록 ================= -->
  <g fill="#d6d6d6" stroke="#000" stroke-width="1.6">
    <rect x="42" y="22" width="183" height="61"/>
    <rect x="212" y="134" width="151" height="61"/>
    <rect x="425" y="134" width="187" height="61"/>
    <rect x="641" y="134" width="184" height="61"/>
    <rect x="847" y="134" width="201" height="61"/>
  </g>

  <!-- 블록 텍스트 -->
  <g font-size="19" font-weight="bold" fill="#000">
    <text x="88" y="59">NED (</text>
    <text x="146" y="59" font-style="italic">P<tspan dy="5" font-size="12" font-style="italic">nv</tspan></text>
    <text x="175" y="59">)</text>

    <text x="241" y="169">INU (</text>
    <text x="296" y="169" font-style="italic">P<tspan dy="5" font-size="12" font-style="italic">inu</tspan></text>
    <text x="329" y="169">)</text>

    <text x="470" y="169">Body (</text>
    <text x="534" y="169" font-style="italic">P<tspan dy="5" font-size="12" font-style="italic">b</tspan></text>
    <text x="557" y="169">)</text>

    <text x="672" y="169">Antenna(</text>
    <text x="758" y="169" font-style="italic">P<tspan dy="5" font-size="12" font-style="italic">a</tspan></text>
    <text x="781" y="169">)</text>

    <text x="872" y="169">Antenna (<tspan font-style="italic">θ</tspan><tspan dy="5" font-size="12">x</tspan><tspan dy="-5">, </tspan><tspan font-style="italic">θ</tspan><tspan dy="5" font-size="12">y</tspan><tspan dy="-5">)</tspan></text>
  </g>

  <!-- 벡터 표시 윗화살표 -->
  <g stroke="#000" stroke-width="1.3" fill="none" marker-end="url(#arrs_B_p34_F1)">
    <line x1="144" y1="42" x2="173" y2="42"/>
    <line x1="294" y1="152" x2="327" y2="152"/>
    <line x1="532" y1="152" x2="555" y2="152"/>
    <line x1="756" y1="152" x2="779" y2="152"/>
  </g>

  <!-- ================= 번호 원 ================= -->
  <g>
    <circle cx="56" cy="36" r="11" fill="#000"/>
    <text x="56" y="41" fill="#ffffff" font-size="13" font-weight="bold" text-anchor="middle">1</text>
    <circle cx="226" cy="147" r="11" fill="#000"/>
    <text x="226" y="152" fill="#ffffff" font-size="13" font-weight="bold" text-anchor="middle">2</text>
    <circle cx="438" cy="147" r="11" fill="#000"/>
    <text x="438" y="152" fill="#ffffff" font-size="13" font-weight="bold" text-anchor="middle">3</text>
    <circle cx="654" cy="147" r="11" fill="#000"/>
    <text x="654" y="152" fill="#ffffff" font-size="13" font-weight="bold" text-anchor="middle">4</text>
    <circle cx="858" cy="147" r="11" fill="#000"/>
    <text x="858" y="152" fill="#ffffff" font-size="13" font-weight="bold" text-anchor="middle">5</text>
  </g>

  <!-- ================= 블록 연결선 ================= -->
  <g stroke="#000" stroke-width="2" fill="none">
    <!-- NED -> INU (꺾인 연결) -->
    <path d="M187,83 L187,164 L208,164" marker-end="url(#arr_B_p34_F1)"/>
    <line x1="363" y1="164" x2="421" y2="164" marker-end="url(#arr_B_p34_F1)"/>
    <line x1="612" y1="164" x2="637" y2="164" marker-end="url(#arr_B_p34_F1)"/>
    <line x1="825" y1="164" x2="843" y2="164" marker-end="url(#arr_B_p34_F1)"/>
  </g>

  <!-- ================= 주석 (점선 화살표) ================= -->
  <g stroke="#000" stroke-width="1.8" fill="none" stroke-dasharray="6 4">
    <line x1="288" y1="49" x2="230" y2="49" marker-end="url(#arr_B_p34_F1)"/>
    <line x1="411" y1="124" x2="411" y2="157" marker-end="url(#arr_B_p34_F1)"/>
    <line x1="841" y1="124" x2="841" y2="157" marker-end="url(#arr_B_p34_F1)"/>
  </g>

  <g fill="#000" font-size="15">
    <text x="296" y="54">항법시스템정보 Ownship NED Velocity(x, y, z) 통해 예측 표적위치 보상</text>
    <text x="301" y="92">실 자세 반영한</text>
    <text x="296" y="116">항법시스템정보(Roll, Pitch, Yaw) 적용</text>
    <text x="757" y="116">안테나 장치 빔 적용 (sine-domain 값)</text>
  </g>

  <!-- ================= 좌표계 1 : NED ================= -->
  <g stroke="#000" stroke-width="1.8" fill="none">
    <line x1="106" y1="145" x2="24" y2="120" marker-end="url(#arr_B_p34_F1)"/>
    <line x1="106" y1="145" x2="86" y2="122" marker-end="url(#arr_B_p34_F1)"/>
    <line x1="106" y1="145" x2="50" y2="175" marker-end="url(#arr_B_p34_F1)"/>
    <line x1="106" y1="145" x2="107" y2="192" marker-end="url(#arr_B_p34_F1)"/>
  </g>
  <g fill="#000" font-size="15">
    <text x="77" y="110" text-anchor="middle">Y<tspan dy="4" font-size="11">nv</tspan></text>
    <text x="34" y="190">X<tspan dy="4" font-size="11">nv</tspan></text>
    <text x="108" y="211" text-anchor="middle">Z<tspan dy="4" font-size="11">nv</tspan></text>
  </g>

  <!-- ================= 좌표계 2 : INU ================= -->
  <g stroke="#000" stroke-width="1.8" fill="none">
    <line x1="319" y1="272" x2="239" y2="249" marker-end="url(#arr_B_p34_F1)"/>
    <line x1="319" y1="272" x2="304" y2="250" marker-end="url(#arr_B_p34_F1)"/>
    <line x1="319" y1="272" x2="265" y2="303" marker-end="url(#arr_B_p34_F1)"/>
    <line x1="319" y1="272" x2="322" y2="320" marker-end="url(#arr_B_p34_F1)"/>
  </g>
  <g fill="#000" font-size="15">
    <text x="296" y="237" text-anchor="middle">Y<tspan dy="4" font-size="11">inu</tspan></text>
    <text x="245" y="318">X<tspan dy="4" font-size="11">inu</tspan></text>
    <text x="323" y="338" text-anchor="middle">Z<tspan dy="4" font-size="11">inu</tspan></text>
  </g>

  <!-- ================= 좌표계 3 : Body ================= -->
  <g stroke="#000" stroke-width="1.8" fill="none">
    <line x1="519" y1="272" x2="446" y2="247" marker-end="url(#arr_B_p34_F1)"/>
    <line x1="519" y1="272" x2="542" y2="234" marker-end="url(#arr_B_p34_F1)"/>
    <line x1="519" y1="272" x2="457" y2="298" marker-end="url(#arr_B_p34_F1)"/>
    <line x1="519" y1="272" x2="545" y2="313" marker-end="url(#arr_B_p34_F1)"/>
  </g>
  <g fill="#000" font-size="15">
    <text x="544" y="218" text-anchor="middle">Y<tspan dy="4" font-size="11">b</tspan></text>
    <text x="435" y="313">X<tspan dy="4" font-size="11">b</tspan></text>
    <text x="558" y="333" text-anchor="middle">Z<tspan dy="4" font-size="11">b</tspan></text>
  </g>

  <!-- ================= 좌표계 4 : Antenna (Pa) ================= -->
  <g stroke="#000" stroke-width="1.8" fill="none">
    <line x1="720" y1="291" x2="663" y2="263" marker-end="url(#arr_B_p34_F1)"/>
    <line x1="720" y1="291" x2="707" y2="259" marker-end="url(#arr_B_p34_F1)"/>
    <line x1="720" y1="291" x2="668" y2="312" marker-end="url(#arr_B_p34_F1)"/>
    <line x1="720" y1="291" x2="711" y2="313" marker-end="url(#arr_B_p34_F1)"/>
  </g>
  <g fill="#000" font-size="15">
    <text x="700" y="245" text-anchor="middle">Y<tspan dy="4" font-size="11">a</tspan></text>
    <text x="704" y="333" text-anchor="middle">X<tspan dy="4" font-size="11">a</tspan></text>
    <text x="643" y="326" text-anchor="middle">Z<tspan dy="4" font-size="11">a</tspan></text>
  </g>

  <!-- ================= 좌표계 5 : Antenna (θx, θy) ================= -->
  <g stroke="#000" stroke-width="1.8" fill="none">
    <line x1="955" y1="291" x2="898" y2="256" marker-end="url(#arr_B_p34_F1)"/>
    <line x1="955" y1="291" x2="944" y2="257" marker-end="url(#arr_B_p34_F1)"/>
    <line x1="955" y1="291" x2="903" y2="312" marker-end="url(#arr_B_p34_F1)"/>
    <line x1="955" y1="291" x2="947" y2="313" marker-end="url(#arr_B_p34_F1)"/>
  </g>
  <g fill="#000" font-size="15">
    <text x="936" y="245" text-anchor="middle">Y<tspan dy="4" font-size="11">a</tspan></text>
    <text x="940" y="335" text-anchor="middle">X<tspan dy="4" font-size="11">a</tspan></text>
    <text x="879" y="326" text-anchor="middle">Z<tspan dy="4" font-size="11">a</tspan></text>
  </g>
</svg>
