<svg xmlns="http://www.w3.org/2000/svg" viewBox="0 0 1000 782" width="1000" height="782"
     font-family="Helvetica, Arial, 'Malgun Gothic', sans-serif" font-size="15">
  <title>INU 좌표계와 Drift Stable 좌표계, 그리고 Space Stable 좌표계간 관계</title>
  <defs>
    <marker id="arr_B_p22_F1" viewBox="0 0 10 10" refX="9" refY="5" markerWidth="9" markerHeight="9" orient="auto">
      <path d="M0,0 L10,5 L0,10 z" fill="#000"/>
    </marker>
    <marker id="arrS_B_p22_F1" viewBox="0 0 10 10" refX="9" refY="5" markerWidth="6" markerHeight="6" orient="auto">
      <path d="M0,0 L10,5 L0,10 z" fill="#000"/>
    </marker>
  </defs>
  <rect width="1000" height="782" fill="#ffffff"/>

  <!-- 항공기 (평면 실루엣, 기수 좌측) -->
  <g id="aircraft">
  <polygon points="217.0,263.0 256.0,255.7 316.5,256.6 428.5,268.1 547.7,282.8 667.1,295.5 757.7,297.8 876.7,313.5 978.9,339.8 968.4,411.0 862.9,406.4 744.5,386.8 657.1,362.7 539.1,340.2 420.9,319.6 310.4,298.1 252.2,281.4" fill="#e8e8e8" stroke="#000" stroke-width="1.6" stroke-linejoin="round"/>
  <polygon points="454.5,272.0 715.5,199.5 766.2,215.2 746.3,298.1" fill="#f2f2f2" stroke="#000" stroke-width="1.6" stroke-linejoin="round"/>
  <polygon points="446.9,323.4 675.5,468.6 728.6,468.4 733.7,383.2" fill="#f2f2f2" stroke="#000" stroke-width="1.6" stroke-linejoin="round"/>
  <polygon points="882.8,313.4 947.3,272.4 990.3,288.9 975.7,336.3" fill="#f2f2f2" stroke="#000" stroke-width="1.6" stroke-linejoin="round"/>
  <polygon points="868.7,408.3 918.5,466.3 964.4,463.0 964.2,413.4" fill="#f2f2f2" stroke="#000" stroke-width="1.6" stroke-linejoin="round"/>
  <polygon points="743.0,294.6 809.5,229.7 891.9,252.0 875.4,312.3" fill="#d6d6d6" stroke="#000" stroke-width="1.6" stroke-linejoin="round"/>
  <polygon points="729.5,385.6 774.3,467.1 859.6,469.6 861.3,407.2" fill="#d6d6d6" stroke="#000" stroke-width="1.6" stroke-linejoin="round"/>
  <polygon points="311.6,263.9 356.7,266.6 437.9,281.7 458.1,298.8 433.8,309.3 351.7,300.2 307.8,289.6 294.9,274.6" fill="#d6d6d6" stroke="#000" stroke-width="1.4" stroke-linejoin="round"/>
  <polygon points="929.8,338.5 977.2,351.6 974.8,367.5 927.1,357.3" fill="#d6d6d6" stroke="#000" stroke-width="1.2" stroke-linejoin="round"/>
  <polygon points="921.0,397.9 970.1,399.1 972.5,383.3 923.8,379.1" fill="#d6d6d6" stroke="#000" stroke-width="1.2" stroke-linejoin="round"/>
  <polyline points="461.6,275.1 742.2,300.6" fill="none" stroke="#000" stroke-width="1.1"/>
  <polyline points="454.6,322.5 730.4,379.7" fill="none" stroke="#000" stroke-width="1.1"/>
  <polyline points="488.0,276.0 520.3,262.6 684.6,279.9 712.0,299.1" fill="none" stroke="#000" stroke-width="1.1"/>
  <polyline points="480.1,329.4 507.1,351.6 669.3,382.7 701.2,372.3" fill="none" stroke="#000" stroke-width="1.1"/>
  </g>

  <!-- 좌표축 -->
  <g stroke="#000" fill="none" stroke-linecap="round">
    <!-- X_w : 기체 전방 (실선) -->
    <line x1="642" y1="326" x2="113" y2="248" stroke-width="2.4" marker-end="url(#arr_B_p22_F1)"/>
    <!-- X_s (점선) -->
    <line x1="642" y1="326" x2="96" y2="326" stroke-width="2" stroke-dasharray="3 7" marker-end="url(#arr_B_p22_F1)"/>
    <!-- X_ins (점선) -->
    <line x1="642" y1="326" x2="186" y2="446" stroke-width="2" stroke-dasharray="3 7" marker-end="url(#arr_B_p22_F1)"/>
    <!-- Y_w (실선) -->
    <line x1="642" y1="326" x2="858" y2="187" stroke-width="2.4" marker-end="url(#arr_B_p22_F1)"/>
    <!-- Y_s (점선) -->
    <line x1="642" y1="326" x2="843" y2="119" stroke-width="2" stroke-dasharray="3 7" marker-end="url(#arr_B_p22_F1)"/>
    <!-- Y_ins (점선) -->
    <line x1="642" y1="326" x2="771" y2="86" stroke-width="2" stroke-dasharray="3 7" marker-end="url(#arr_B_p22_F1)"/>
    <!-- Z_w, Z_s, Z_ins (실선, 하방) -->
    <line x1="642" y1="326" x2="639" y2="706" stroke-width="2.4" marker-end="url(#arr_B_p22_F1)"/>
  </g>

  <!-- 각 관계 호 -->
  <g stroke="#000" fill="none" stroke-width="2">
    <path d="M118,252 C66,270 60,306 99,326"/>
    <path d="M99,332 C50,368 54,430 180,448"/>
    <path d="M776,80 C802,60 832,72 845,108" marker-end="url(#arrS_B_p22_F1)"/>
    <path d="M849,113 C880,122 894,140 891,164" marker-end="url(#arrS_B_p22_F1)"/>
  </g>

  <!-- 라벨 -->
  <g fill="#000">
    <text x="80" y="222" font-size="30">X<tspan dy="7" font-size="20">W</tspan></text>
    <text x="20" y="358" font-size="30">X<tspan dy="7" font-size="20">s</tspan></text>
    <text x="118" y="502" font-size="30">X<tspan dy="7" font-size="20">Ins</tspan></text>
    <text x="48" y="294" font-size="28">&#946;</text>
    <text x="96" y="408" font-size="27">Yaw(&#968;)</text>

    <text x="714" y="42" font-size="30">Y<tspan dy="7" font-size="20">Ins</tspan></text>
    <text x="798" y="42" font-size="27">Yaw(&#936;)</text>
    <text x="872" y="98" font-size="30">Y<tspan dy="7" font-size="20">s</tspan></text>
    <text x="902" y="146" font-size="28">&#946;</text>
    <text x="906" y="212" font-size="30">Y<tspan dy="7" font-size="20">W</tspan></text>

    <text x="604" y="768" font-size="30">Z<tspan dy="7" font-size="20">W</tspan><tspan dy="-7" font-size="30">, Z</tspan><tspan dy="7" font-size="20">S</tspan><tspan dy="-7" font-size="30">, Z</tspan><tspan dy="7" font-size="20">Ins</tspan></text>
  </g>
</svg>
