<svg xmlns="http://www.w3.org/2000/svg" viewBox="0 0 1100 620" width="1100" height="620"
     font-family="Helvetica, Arial, 'Malgun Gothic', sans-serif" font-size="15">
  <title>AAST/NAST/ACM Slew 탐지 표적 좌표계 변환 흐름도</title>
  <defs>
    <marker id="arr_B_p29_F1" viewBox="0 0 10 10" refX="9" refY="5" markerWidth="7" markerHeight="7" orient="auto">
      <path d="M0,0 L10,5 L0,10 z" fill="#000"/>
    </marker>
    <marker id="arrv_B_p29_F1" viewBox="0 0 10 10" refX="9" refY="5" markerWidth="4" markerHeight="4" orient="auto">
      <path d="M0,0 L10,5 L0,10 z" fill="#000"/>
    </marker>
  </defs>

  <rect width="1100" height="620" fill="#ffffff"/>

  <!-- ================= 상단 주석 ================= -->
  <g font-size="15" font-weight="bold" text-anchor="middle">
    <text x="402" y="40">Body Stabilized Motion 모사 위해</text>
    <text x="402" y="64">항법시스템 정보(0, 0, Yaw) 적용</text>
    <text x="706" y="68">3D Sphere → Cartesian 변환</text>
    <text x="906" y="36">MFD Display</text>
  </g>
  <line x1="417" y1="72" x2="417" y2="116" stroke="#000" stroke-width="2" stroke-dasharray="6,5" marker-end="url(#arr_B_p29_F1)"/>
  <line x1="641" y1="78" x2="641" y2="116" stroke="#000" stroke-width="2" stroke-dasharray="6,5" marker-end="url(#arr_B_p29_F1)"/>
  <line x1="860" y1="46" x2="860" y2="116" stroke="#000" stroke-width="2" marker-end="url(#arr_B_p29_F1)"/>

  <!-- ================= 상단 블록 행 ================= -->
  <!-- 6 INU -->
  <rect x="216" y="105" width="196" height="62" rx="4" fill="#d6d6d6" stroke="#000" stroke-width="2"/>
  <text x="267" y="142" font-size="17" font-weight="bold">INU ( <tspan font-style="italic">P</tspan><tspan dy="4" font-size="11">inu</tspan><tspan dy="-4"> )</tspan></text>
  <line x1="318" y1="123" x2="334" y2="123" stroke="#000" stroke-width="1.6" marker-end="url(#arrv_B_p29_F1)"/>

  <!-- 7 Space Stable -->
  <rect x="433" y="105" width="196" height="62" rx="4" fill="#d6d6d6" stroke="#000" stroke-width="2"/>
  <text x="456" y="142" font-size="17" font-weight="bold">Space Stable ( <tspan font-style="italic">P</tspan><tspan dy="4" font-size="11">s</tspan><tspan dy="-4"> )</tspan></text>
  <line x1="573" y1="123" x2="588" y2="123" stroke="#000" stroke-width="1.6" marker-end="url(#arrv_B_p29_F1)"/>

  <!-- 8 Space Stable AZ-EL -->
  <rect x="654" y="105" width="192" height="62" rx="4" fill="#d6d6d6" stroke="#000" stroke-width="2"/>
  <text x="750" y="142" font-size="17" font-weight="bold" text-anchor="middle">Space Stable AZ-EL</text>

  <!-- MFD Display (조종석 다기능시현기 도식) -->
  <g>
    <rect x="876" y="52" width="184" height="138" fill="#7a7a7a" stroke="#000" stroke-width="2"/>
    <rect x="892" y="60" width="152" height="18" fill="#3d3d3d"/>
    <rect x="906" y="84" width="124" height="62" fill="#2a2a2a"/>
    <rect x="916" y="94" width="46" height="7" fill="#9a9a9a"/>
    <rect x="916" y="108" width="66" height="6" fill="#7f7f7f"/>
    <rect x="916" y="122" width="34" height="6" fill="#7f7f7f"/>
    <rect x="990" y="94" width="30" height="34" fill="#575757"/>
    <g fill="#4a4a4a" stroke="#1a1a1a" stroke-width="1">
      <rect x="884" y="88" width="12" height="14"/>
      <rect x="884" y="108" width="12" height="14"/>
      <rect x="884" y="128" width="12" height="14"/>
      <rect x="1040" y="88" width="12" height="14"/>
      <rect x="1040" y="108" width="12" height="14"/>
      <rect x="1040" y="128" width="12" height="14"/>
      <rect x="898" y="156" width="20" height="14"/>
      <rect x="926" y="156" width="20" height="14"/>
      <rect x="954" y="156" width="20" height="14"/>
      <rect x="982" y="156" width="20" height="14"/>
      <rect x="1010" y="156" width="20" height="14"/>
    </g>
  </g>

  <!-- ================= 5 NED 블록 ================= -->
  <rect x="42" y="240" width="190" height="62" rx="4" fill="#d6d6d6" stroke="#000" stroke-width="2"/>
  <text x="91" y="277" font-size="17" font-weight="bold">NED ( <tspan font-style="italic">P</tspan><tspan dy="4" font-size="11">nv</tspan><tspan dy="-4"> )</tspan></text>
  <line x1="145" y1="258" x2="160" y2="258" stroke="#000" stroke-width="1.6" marker-end="url(#arrv_B_p29_F1)"/>

  <!-- ================= 하단 주석 ================= -->
  <g font-size="15" font-weight="bold">
    <text x="302" y="336">실 자세 반영한</text>
    <text x="302" y="360">항법시스템 정보(Roll, Pitch, Yaw) 적용</text>
    <text x="936" y="348" text-anchor="middle">Sine-domain Monopulse data 적용</text>
  </g>
  <line x1="417" y1="368" x2="417" y2="394" stroke="#000" stroke-width="2" stroke-dasharray="6,5" marker-end="url(#arr_B_p29_F1)"/>
  <line x1="975" y1="362" x2="975" y2="394" stroke="#000" stroke-width="2" stroke-dasharray="6,5" marker-end="url(#arr_B_p29_F1)"/>

  <!-- ================= 하단 블록 행 ================= -->
  <!-- 4 INU -->
  <rect x="218" y="398" width="194" height="62" rx="4" fill="#d6d6d6" stroke="#000" stroke-width="2"/>
  <text x="268" y="435" font-size="17" font-weight="bold">INU ( <tspan font-style="italic">P</tspan><tspan dy="4" font-size="11">inu</tspan><tspan dy="-4"> )</tspan></text>
  <line x1="319" y1="416" x2="335" y2="416" stroke="#000" stroke-width="1.6" marker-end="url(#arrv_B_p29_F1)"/>

  <!-- 3 Body -->
  <rect x="435" y="398" width="197" height="62" rx="4" fill="#d6d6d6" stroke="#000" stroke-width="2"/>
  <text x="488" y="435" font-size="17" font-weight="bold">Body ( <tspan font-style="italic">P</tspan><tspan dy="4" font-size="11">b</tspan><tspan dy="-4"> )</tspan></text>
  <line x1="545" y1="416" x2="560" y2="416" stroke="#000" stroke-width="1.6" marker-end="url(#arrv_B_p29_F1)"/>

  <!-- 2 Antenna(P_a) -->
  <rect x="659" y="398" width="193" height="62" rx="4" fill="#d6d6d6" stroke="#000" stroke-width="2"/>
  <text x="700" y="435" font-size="17" font-weight="bold">Antenna( <tspan font-style="italic">P</tspan><tspan dy="4" font-size="11">a</tspan><tspan dy="-4"> )</tspan></text>
  <line x1="777" y1="416" x2="792" y2="416" stroke="#000" stroke-width="1.6" marker-end="url(#arrv_B_p29_F1)"/>

  <!-- 1 Antenna(theta_x, theta_y) -->
  <rect x="879" y="398" width="194" height="62" rx="4" fill="#d6d6d6" stroke="#000" stroke-width="2"/>
  <text x="976" y="435" font-size="17" font-weight="bold" text-anchor="middle">Antenna (<tspan font-style="italic">θ</tspan><tspan dy="4" font-size="11">x</tspan><tspan dy="-4">, </tspan><tspan font-style="italic">θ</tspan><tspan dy="4" font-size="11">y</tspan><tspan dy="-4">)</tspan></text>

  <!-- ================= 블록 연결선 ================= -->
  <g stroke="#000" stroke-width="2.2" fill="none" marker-end="url(#arr_B_p29_F1)">
    <!-- 상단: 6 -> 7 -> 8 -> MFD -->
    <line x1="412" y1="136" x2="431" y2="136"/>
    <line x1="629" y1="136" x2="652" y2="136"/>
    <line x1="846" y1="136" x2="874" y2="136"/>
    <!-- 하단: 1 -> 2 -> 3 -> 4 (오른쪽에서 왼쪽) -->
    <line x1="879" y1="429" x2="854" y2="429"/>
    <line x1="659" y1="429" x2="634" y2="429"/>
    <line x1="435" y1="429" x2="414" y2="429"/>
    <!-- 4 -> 5 (좌측으로 나가 위로) -->
    <path d="M218,429 L186,429 L186,306"/>
    <!-- 5 -> 6 (위로 올라가 우측으로) -->
    <path d="M186,240 L186,136 L214,136"/>
  </g>

  <!-- ================= 번호 원 ================= -->
  <g>
    <g fill="#111111">
      <circle cx="236" cy="113" r="11"/>
      <circle cx="453" cy="113" r="11"/>
      <circle cx="674" cy="113" r="11"/>
      <circle cx="62"  cy="248" r="11"/>
      <circle cx="238" cy="406" r="11"/>
      <circle cx="455" cy="406" r="11"/>
      <circle cx="679" cy="406" r="11"/>
      <circle cx="899" cy="406" r="11"/>
    </g>
    <g fill="#ffffff" font-size="14" font-weight="bold" text-anchor="middle">
      <text x="236" y="118">6</text>
      <text x="453" y="118">7</text>
      <text x="674" y="118">8</text>
      <text x="62"  y="253">5</text>
      <text x="238" y="411">4</text>
      <text x="455" y="411">3</text>
      <text x="679" y="411">2</text>
      <text x="899" y="411">1</text>
    </g>
  </g>

  <!-- ================= 좌표계 아이콘 : 항공기 실루엣 ================= -->
  <!-- 7 Space Stable 기체 -->
  <g transform="translate(560,240) scale(0.8)">
    <path d="M-12,-6 L14,-38 L28,-38 L20,-6 Z" fill="#e8e8e8" stroke="#000" stroke-width="2"/>
    <path d="M-12,6 L14,38 L28,38 L20,6 Z" fill="#e8e8e8" stroke="#000" stroke-width="2"/>
    <path d="M34,-7 L48,-24 L58,-24 L50,-7 Z" fill="#e8e8e8" stroke="#000" stroke-width="2"/>
    <path d="M34,7 L48,24 L58,24 L50,7 Z" fill="#e8e8e8" stroke="#000" stroke-width="2"/>
    <path d="M-62,0 L-46,-5 L-24,-7 L34,-8 L52,-6 L58,0 L52,6 L34,8 L-24,7 L-46,5 Z" fill="#d6d6d6" stroke="#000" stroke-width="2"/>
    <ellipse cx="-30" cy="0" rx="13" ry="4" fill="#f2f2f2" stroke="#000" stroke-width="1.6"/>
  </g>
  <!-- 8 Space Stable AZ-EL 기체 -->
  <g transform="translate(766,240) scale(0.8)">
    <path d="M-12,-6 L14,-38 L28,-38 L20,-6 Z" fill="#e8e8e8" stroke="#000" stroke-width="2"/>
    <path d="M-12,6 L14,38 L28,38 L20,6 Z" fill="#e8e8e8" stroke="#000" stroke-width="2"/>
    <path d="M34,-7 L48,-24 L58,-24 L50,-7 Z" fill="#e8e8e8" stroke="#000" stroke-width="2"/>
    <path d="M34,7 L48,24 L58,24 L50,7 Z" fill="#e8e8e8" stroke="#000" stroke-width="2"/>
    <path d="M-62,0 L-46,-5 L-24,-7 L34,-8 L52,-6 L58,0 L52,6 L34,8 L-24,7 L-46,5 Z" fill="#d6d6d6" stroke="#000" stroke-width="2"/>
    <ellipse cx="-30" cy="0" rx="13" ry="4" fill="#f2f2f2" stroke="#000" stroke-width="1.6"/>
  </g>
  <!-- 3 Body 기체 -->
  <g transform="translate(545,532) scale(0.8)">
    <path d="M-12,-6 L14,-38 L28,-38 L20,-6 Z" fill="#e8e8e8" stroke="#000" stroke-width="2"/>
    <path d="M-12,6 L14,38 L28,38 L20,6 Z" fill="#e8e8e8" stroke="#000" stroke-width="2"/>
    <path d="M34,-7 L48,-24 L58,-24 L50,-7 Z" fill="#e8e8e8" stroke="#000" stroke-width="2"/>
    <path d="M34,7 L48,24 L58,24 L50,7 Z" fill="#e8e8e8" stroke="#000" stroke-width="2"/>
    <path d="M-62,0 L-46,-5 L-24,-7 L34,-8 L52,-6 L58,0 L52,6 L34,8 L-24,7 L-46,5 Z" fill="#d6d6d6" stroke="#000" stroke-width="2"/>
    <ellipse cx="-30" cy="0" rx="13" ry="4" fill="#f2f2f2" stroke="#000" stroke-width="1.6"/>
  </g>
  <!-- 2 Antenna 기체 -->
  <g transform="translate(796,540) scale(0.8)">
    <path d="M-12,-6 L14,-38 L28,-38 L20,-6 Z" fill="#e8e8e8" stroke="#000" stroke-width="2"/>
    <path d="M-12,6 L14,38 L28,38 L20,6 Z" fill="#e8e8e8" stroke="#000" stroke-width="2"/>
    <path d="M34,-7 L48,-24 L58,-24 L50,-7 Z" fill="#e8e8e8" stroke="#000" stroke-width="2"/>
    <path d="M34,7 L48,24 L58,24 L50,7 Z" fill="#e8e8e8" stroke="#000" stroke-width="2"/>
    <path d="M-62,0 L-46,-5 L-24,-7 L34,-8 L52,-6 L58,0 L52,6 L34,8 L-24,7 L-46,5 Z" fill="#d6d6d6" stroke="#000" stroke-width="2"/>
    <ellipse cx="-30" cy="0" rx="13" ry="4" fill="#f2f2f2" stroke="#000" stroke-width="1.6"/>
  </g>
  <!-- 1 Antenna 기체 -->
  <g transform="translate(1016,540) scale(0.8)">
    <path d="M-12,-6 L14,-38 L28,-38 L20,-6 Z" fill="#e8e8e8" stroke="#000" stroke-width="2"/>
    <path d="M-12,6 L14,38 L28,38 L20,6 Z" fill="#e8e8e8" stroke="#000" stroke-width="2"/>
    <path d="M34,-7 L48,-24 L58,-24 L50,-7 Z" fill="#e8e8e8" stroke="#000" stroke-width="2"/>
    <path d="M34,7 L48,24 L58,24 L50,7 Z" fill="#e8e8e8" stroke="#000" stroke-width="2"/>
    <path d="M-62,0 L-46,-5 L-24,-7 L34,-8 L52,-6 L58,0 L52,6 L34,8 L-24,7 L-46,5 Z" fill="#d6d6d6" stroke="#000" stroke-width="2"/>
    <ellipse cx="-30" cy="0" rx="13" ry="4" fill="#f2f2f2" stroke="#000" stroke-width="1.6"/>
  </g>

  <!-- ================= 좌표축 ================= -->
  <g stroke="#000" stroke-width="1.8" fill="none" marker-end="url(#arr_B_p29_F1)">
    <!-- INU 좌표계 (블록 6 아래) -->
    <line x1="344" y1="247" x2="262" y2="222"/>
    <line x1="344" y1="247" x2="322" y2="222"/>
    <line x1="344" y1="247" x2="288" y2="284"/>
    <line x1="344" y1="247" x2="344" y2="304"/>
    <!-- NED(nv) 좌표계 (블록 5 아래) -->
    <line x1="111" y1="365" x2="24"  y2="332"/>
    <line x1="111" y1="365" x2="89"  y2="336"/>
    <line x1="111" y1="365" x2="58"  y2="402"/>
    <line x1="111" y1="365" x2="111" y2="420"/>
    <!-- Space Stable 좌표계 (블록 7 아래) -->
    <line x1="512" y1="236" x2="458" y2="248"/>
    <line x1="512" y1="236" x2="462" y2="214"/>
    <line x1="512" y1="236" x2="580" y2="208"/>
    <line x1="534" y1="256" x2="534" y2="308"/>
    <!-- Space Stable AZ-EL 좌표계 (블록 8 아래) -->
    <line x1="712" y1="238" x2="656" y2="250"/>
    <line x1="712" y1="238" x2="658" y2="212"/>
    <line x1="712" y1="238" x2="678" y2="230"/>
    <line x1="712" y1="238" x2="792" y2="210"/>
    <line x1="742" y1="256" x2="742" y2="306"/>
    <!-- INU 좌표계 (블록 4 아래) -->
    <line x1="352" y1="530" x2="265" y2="505"/>
    <line x1="352" y1="530" x2="330" y2="506"/>
    <line x1="352" y1="530" x2="294" y2="566"/>
    <line x1="352" y1="530" x2="352" y2="586"/>
    <!-- Body 좌표계 (블록 3 아래) -->
    <line x1="520" y1="532" x2="449" y2="506"/>
    <line x1="520" y1="532" x2="551" y2="490"/>
    <line x1="520" y1="532" x2="461" y2="560"/>
    <line x1="520" y1="532" x2="552" y2="582"/>
    <!-- Antenna 좌표계 (블록 2 아래) -->
    <line x1="732" y1="547" x2="668" y2="515"/>
    <line x1="732" y1="547" x2="719" y2="505"/>
    <line x1="732" y1="547" x2="723" y2="573"/>
    <line x1="732" y1="547" x2="674" y2="572"/>
    <!-- Antenna 좌표계 (블록 1 아래) -->
    <line x1="968" y1="547" x2="905" y2="506"/>
    <line x1="968" y1="547" x2="956" y2="505"/>
    <line x1="968" y1="547" x2="960" y2="571"/>
    <line x1="968" y1="547" x2="910" y2="574"/>
  </g>

  <!-- ================= 축 라벨 ================= -->
  <g font-size="14" text-anchor="middle">
    <!-- INU (블록 6 아래) -->
    <text x="328" y="212">Y<tspan dy="4" font-size="11">inu</tspan></text>
    <text x="276" y="300">X<tspan dy="4" font-size="11">inu</tspan></text>
    <text x="352" y="321">Z<tspan dy="4" font-size="11">inu</tspan></text>
    <!-- NED(nv) (블록 5 아래) -->
    <text x="95"  y="326">Y<tspan dy="4" font-size="11">nv</tspan></text>
    <text x="46"  y="418">X<tspan dy="4" font-size="11">nv</tspan></text>
    <text x="119" y="437">Z<tspan dy="4" font-size="11">nv</tspan></text>
    <!-- Space Stable (블록 7 아래) -->
    <text x="440" y="253">X<tspan dy="4" font-size="11">s</tspan></text>
    <text x="594" y="203">Y<tspan dy="4" font-size="11">s</tspan></text>
    <text x="534" y="325">Z<tspan dy="4" font-size="11">s</tspan></text>
    <!-- Space Stable AZ-EL (블록 8 아래) -->
    <text x="638" y="255">X<tspan dy="4" font-size="11">s</tspan></text>
    <text x="806" y="205">Y<tspan dy="4" font-size="11">s</tspan></text>
    <text x="742" y="323">Z<tspan dy="4" font-size="11">s</tspan></text>
    <text x="700" y="212">EL</text>
    <text x="698" y="264">AZ</text>
    <!-- INU (블록 4 아래) -->
    <text x="336" y="496">Y<tspan dy="4" font-size="11">inu</tspan></text>
    <text x="282" y="582">X<tspan dy="4" font-size="11">inu</tspan></text>
    <text x="360" y="603">Z<tspan dy="4" font-size="11">inu</tspan></text>
    <!-- Body (블록 3 아래) -->
    <text x="553" y="481">Y<tspan dy="4" font-size="11">b</tspan></text>
    <text x="450" y="578">X<tspan dy="4" font-size="11">b</tspan></text>
    <text x="568" y="597">Z<tspan dy="4" font-size="11">b</tspan></text>
    <!-- Antenna (블록 2 아래) -->
    <text x="706" y="497">Y<tspan dy="4" font-size="11">a</tspan></text>
    <text x="718" y="592">X<tspan dy="4" font-size="11">a</tspan></text>
    <text x="656" y="580">Z<tspan dy="4" font-size="11">a</tspan></text>
    <!-- Antenna (블록 1 아래) -->
    <text x="943" y="496">Y<tspan dy="4" font-size="11">a</tspan></text>
    <text x="956" y="592">X<tspan dy="4" font-size="11">a</tspan></text>
    <text x="892" y="582">Z<tspan dy="4" font-size="11">a</tspan></text>
  </g>
</svg>
